# xmcd
#
# Track frame offsets:
#       150
#       16034
#       58973
#       80378
#       93307
#       120407
#       154205
#       182629
#       194919
#       212267
#       250995
#       265387
#       300948
#
# Disc length: 4261 seconds
#
# Revision: 1
# Processed by: cddbd v1.5.2PL0 Copyright (c) Steve Scherf et al.
# Submitted via: FreeDbEdit v0.1
#
DISCID=a710a30d
DTITLE=The Temptations - Psychedelic Soul (edit) [CD1]
DYEAR=1900
DGENRE=Soul
TTITLE0=Cloud Nine
TTITLE1=Runaway Child Running Wild
TTITLE2=Don't Let the Joneses Get You Down
TTITLE3=I Can't Get Next to You
TTITLE4=Message From a Black Man
TTITLE5=Slave
TTITLE6=Psychedelic Shack
TTITLE7=You Make Your Own Heaven
TTITLE8=Hum Along and Dance
TTITLE9=Take a Stroll Thru Your Mind
TTITLE10=War
TTITLE11=Friendship Train
TTITLE12=Ball of Confusion
EXTD=
EXTT0=
EXTT1=
EXTT2=
EXTT3=
EXTT4=
EXTT5=
EXTT6=
EXTT7=
EXTT8=
EXTT9=
EXTT10=
EXTT11=
EXTT12=
PLAYORDER=
